<svg xmlns="http://www.w3.org/2000/svg" width="16" height="16" viewBox="0 0 16 16">
  <path fill="currentColor" d="M8,1 C4.13,1 1,4.13 1,8 C1,11.87 4.13,15 8,15 C11.87,15 15,11.87 15,8 C15,4.13 11.87,1 8,1 Z M8,2.5 C11.04,2.5 13.5,4.96 13.5,8 C13.5,9.66 12.77,11.14 11.6,12.16 L10.54,11.1 C11.45,10.37 12,9.25 12,8 C12,5.79 10.21,4 8,4 C5.79,4 4,5.79 4,8 C4,9.25 4.55,10.37 5.46,11.1 L4.4,12.16 C3.23,11.14 2.5,9.66 2.5,8 C2.5,4.96 4.96,2.5 8,2.5 Z M8,5.5 C9.38,5.5 10.5,6.62 10.5,8 C10.5,8.81 10.12,9.52 9.53,9.98 L7.5,7.95 L7.5,5.56 C7.66,5.52 7.83,5.5 8,5.5 Z"/>
</svg>
